<svg width="24" height="24" viewBox="0 0 24 24" fill="none" xmlns="http://www.w3.org/2000/svg">
<path fill-rule="evenodd" clip-rule="evenodd" d="M14.3304 7.26966C14.0375 6.97676 13.5626 6.97676 13.2697 7.26966C12.9768 7.56255 12.9768 8.03742 13.2697 8.33032L16.1894 11.25H6C5.58579 11.25 5.25 11.5858 5.25 12C5.25 12.4142 5.58579 12.75 6 12.75H16.1894L13.2697 15.6697C12.9768 15.9626 12.9768 16.4374 13.2697 16.7303C13.5626 17.0232 14.0375 17.0232 14.3304 16.7303L18.5304 12.5303C18.6166 12.4441 18.6775 12.342 18.7129 12.2335C18.7273 12.1897 18.7377 12.1441 18.7438 12.0971C18.7524 12.0304 18.7521 11.9626 18.7428 11.8959C18.7373 11.8561 18.7286 11.8172 18.7171 11.7796C18.6823 11.6662 18.6201 11.5594 18.5304 11.4697L14.3304 7.26966Z" fill="#2B7EFB"/>
</svg>
